<?xml version="1.0" encoding="UTF-8"?>
<svg id="Ebene_1" xmlns="http://www.w3.org/2000/svg" version="1.1" viewBox="0 0 841.89 595.28">
  <!-- Generator: Adobe Illustrator 29.2.1, SVG Export Plug-In . SVG Version: 2.1.0 Build 116)  -->
  <defs>
    <style>
      .st0 {
        fill: #1d1d1b;
      }
    </style>
  </defs>
  <path class="st0" d="M343.98,287.98c0-7.37,1.45-9.49,1.45-9.49h-7.87s1.45,2.12,1.45,9.49l-.28,20.16c0,7.32-1.45,9.44-1.45,9.44h8.49s-1.68-2.12-1.68-9.44l-.06-9.16,19.1,18.6h8.21v-.33c-3.24-2.12-5.31-4.24-7.43-6.37l-14.86-14.46,12.62-11.9c2.29-2.01,4.91-4.47,7.87-5.7v-.39h-6.2l-19.32,18.21-.06-8.66Z"/>
  <path class="st0" d="M376.93,317.58h8.27s-1.45-2.12-1.45-9.44l-.06-8.94h24.41l-.11,8.94c0,7.32-1.45,9.44-1.45,9.44h8.49s-1.68-2.12-1.68-9.44l-.11-20.16c0-7.37,1.45-9.49,1.45-9.49h-7.88s1.45,2.12,1.45,9.49l-.11,8.88h-24.46l-.06-8.88c0-7.37,1.45-9.49,1.45-9.49h-7.87c.06,0,1.45,2.12,1.45,9.49l-.28,20.16c0,7.32-1.45,9.44-1.45,9.44Z"/>
  <path class="st0" d="M475.73,280.24c-10.01,0-15.39,7.64-15.39,17.76s5.39,17.64,15.39,17.64,15.33-7.58,15.33-17.64-5.33-17.76-15.33-17.76Z"/>
  <path class="st0" d="M495.07,257.42h-149.15c-22.38,0-40.58,18.2-40.58,40.58s18.2,40.58,40.58,40.58h149.15c22.38,0,40.58-18.2,40.58-40.58s-18.2-40.58-40.58-40.58ZM430.6,334.78h-84.67c-20.28,0-36.78-16.5-36.78-36.78s16.5-36.78,36.78-36.78h84.67v73.56ZM475.73,320.97c-13.32,0-21.55-9.83-21.55-22.97s8.23-22.97,21.55-22.97,21.61,9.77,21.61,22.97-8.35,22.97-21.61,22.97Z"/>
</svg>